<?xml version="1.0" standalone="no"?>
<!DOCTYPE svg PUBLIC "-//W3C//DTD SVG 20010904//EN"
 "http://www.w3.org/TR/2001/REC-SVG-20010904/DTD/svg10.dtd">
<svg version="1.0" xmlns="http://www.w3.org/2000/svg"
 width="161.000000pt" height="160.000000pt" viewBox="0 0 161.000000 160.000000"
 preserveAspectRatio="xMidYMid meet">
<metadata>
Created by potrace 1.11, written by Peter Selinger 2001-2013
</metadata>
<g transform="translate(0.000000,160.000000) scale(0.100000,-0.100000)"
fill="#000000" stroke="none">
<path d="M0 800 l0 -800 800 0 800 0 0 397 0 398 -238 -238 -237 -237 -65 65
-65 65 175 175 175 175 -175 175 -175 175 65 65 65 65 237 -237 238 -238 0
398 0 397 -800 0 -800 0 0 -800z m995 -240 l-240 -240 -65 65 -65 65 175 175
175 175 -175 175 -175 175 65 65 65 65 240 -240 240 -240 -240 -240z m-549
418 c3 -10 9 -18 13 -18 5 0 32 35 61 78 l52 77 -6 -87 -5 -87 45 6 c24 3 44
3 44 0 0 -3 -15 -32 -34 -66 -30 -52 -32 -61 -18 -65 9 -2 50 -12 91 -21 l74
-18 -97 -30 c-53 -17 -96 -33 -96 -37 0 -3 18 -31 41 -61 47 -63 43 -66 -56
-45 -38 8 -71 13 -73 12 -1 -2 -7 -29 -12 -61 -5 -32 -11 -59 -12 -61 -2 -1
-29 20 -60 47 l-57 50 -6 -48 c-13 -104 -15 -104 -47 -16 l-30 82 -51 -21
c-63 -25 -87 -32 -87 -25 0 3 16 39 36 81 20 42 35 78 33 80 -2 2 -44 16 -94
31 l-90 29 60 9 c33 5 61 10 63 11 1 2 -9 23 -23 48 l-25 45 60 7 c33 4 60 11
60 17 0 5 -14 36 -30 69 -17 33 -27 60 -24 60 4 0 42 -20 85 -45 43 -25 80
-45 82 -45 2 0 10 39 17 88 7 48 15 91 18 96 4 8 85 -129 98 -166z"/>
</g>
</svg>
